# File created by Blade
# Date/Time:  Wed Apr 08 17:35:20 2015
#---------------------------------------------------------
:version 1.10
:name HOM
:units
  mass 1.0
  length 1.000000
  angle deg
:documentation
     Acclaim Skeleton File
:root
   axis xyz
   order TX TY TZ RX RY RZ
   position 0.000000 0.000000 0.000000
   orientation 0 0 0
:bonedata
   begin
      id 1
      name Spine_dum
      direction 0.000000 1.000000 0.000000
      length 5.893853
      axis 0.0 0.0 0.0 xyz
   end
   begin
      id 2
      name LeftUpLeg_dum
      direction 1.000000 0.000000 0.000000
      length 3.697939
      axis 0.0 0.0 0.0 xyz
   end
   begin
      id 3
      name RightUpLeg_dum
      direction -1.000000 0.000000 0.000000
      length 3.697939
      axis 0.0 0.0 0.0 xyz
   end
   begin
      id 4
      name Spine
      direction 0.000000 1.000000 0.000000
      length 0.000000
      axis 0.0 0.0 0.0 xyz
      dof rx ry rz
   end
   begin
      id 5
      name Spine_dum1
      direction 0.000000 1.000000 0.000000
      length 16.447146
      axis 0.0 0.0 0.0 xyz
   end
   begin
      id 6
      name Spine_dum2
      direction 0.000000 1.000000 0.000000
      length 10.900383
      axis 0.0 0.0 0.0 xyz
   end
   begin
      id 7
      name Spine_dum3
      direction 0.000000 1.000000 0.000000
      length 10.900383
      axis 0.0 0.0 0.0 xyz
   end
   begin
      id 8
      name Head
      direction 0.000000 1.000000 0.000000
      length 4.527550
      axis 0.0 0.0 0.0 xyz
      dof rx ry rz
   end
   begin
      id 9
      name LeftShoulder
      direction 1.000000 0.000000 0.000000
      length 8.219464
      axis 0.0 0.0 -90.0 xyz
      dof rx ry rz
   end
   begin
      id 10
      name LeftArm
      direction 1.000000 0.000000 0.000000
      length 11.094937
      axis 0.0 0.0 -90.0 xyz
      dof rx ry rz
   end
   begin
      id 11
      name LeftForeArm
      direction 1.000000 0.000000 0.000000
      length 9.103875
      axis 0.0 0.0 -90.0 xyz
      dof ry rz rx
   end
   begin
      id 12
      name LeftHand
      direction 0.000000 0.000000 0.000000
      length 0.000000
      axis 0.0 0.0 -90.0 xyz
      dof rx ry rz
   end
   begin
      id 13
      name LeftHand_dum1
      direction 0.000000 0.000000 0.000000
      length 0.000000
      axis 0.0 0.0 -90.0 xyz
   end
   begin
      id 14
      name LeftHand_dum2
      direction 1.000000 0.000000 0.000000
      length 3.937000
      axis 0.0 0.0 -90.0 xyz
   end
   begin
      id 15
      name LeftHandThumb1
      direction 0.000000 0.000000 1.000000
      length 3.937000
      axis 0.0 0.0 -90.0 xyz
      dof rx rz ry
   end
   begin
      id 16
      name RightShoulder
      direction -1.000000 0.000000 0.000000
      length 8.219464
      axis 0.0 0.0 90.0 xyz
      dof rx ry rz
   end
   begin
      id 17
      name RightArm
      direction -1.000000 0.000000 0.000000
      length 11.094937
      axis 0.0 0.0 90.0 xyz
      dof rx ry rz
   end
   begin
      id 18
      name RightForeArm
      direction -1.000000 0.000000 0.000000
      length 9.103875
      axis 0.0 0.0 90.0 xyz
      dof ry rz rx
   end
   begin
      id 19
      name RightHand
      direction 0.000000 0.000000 0.000000
      length 0.000000
      axis 0.0 0.0 90.0 xyz
      dof rx ry rz
   end
   begin
      id 20
      name RightHand_dum1
      direction 0.000000 0.000000 0.000000
      length 0.000000
      axis 0.0 0.0 90.0 xyz
   end
   begin
      id 21
      name RightHand_dum2
      direction -1.000000 0.000000 0.000000
      length 3.937000
      axis 0.0 0.0 90.0 xyz
   end
   begin
      id 22
      name RightHandThumb1
      direction 0.000000 0.000000 1.000000
      length 3.937000
      axis 0.0 0.0 90.0 xyz
      dof rx rz ry
   end
   begin
      id 23
      name LeftUpLeg
      direction 0.000000 -1.000000 0.000000
      length 16.181467
      axis 0.0 0.0 0.0 xyz
      dof rx ry rz
   end
   begin
      id 24
      name LeftLeg
      direction 0.000000 -1.000000 0.000000
      length 16.501392
      axis 0.0 0.0 0.0 xyz
      dof rx ry rz
   end
   begin
      id 25
      name LeftFoot
      direction 0.000000 -0.258819 0.965926
      length 6.408245
      axis 15.0 0.0 0.0 xyz
      dof rx ry rz
   end
   begin
      id 26
      name LeftToeBase
      direction 0.000000 0.000000 1.000000
      length 2.952750
      axis 0.0 0.0 0.0 xyz
      dof rx ry rz
   end
   begin
      id 27
      name RightUpLeg
      direction 0.000000 -1.000000 0.000000
      length 16.181467
      axis 0.0 0.0 0.0 xyz
      dof rx ry rz
   end
   begin
      id 28
      name RightLeg
      direction 0.000000 -1.000000 0.000000
      length 16.501392
      axis 0.0 0.0 0.0 xyz
      dof rx ry rz
   end
   begin
      id 29
      name RightFoot
      direction 0.000000 -0.258819 0.965926
      length 6.408245
      axis 15.0 0.0 0.0 xyz
      dof rx ry rz
   end
   begin
      id 30
      name RightToeBase
      direction 0.000000 0.000000 1.000000
      length 2.952750
      axis 0.0 0.0 0.0 xyz
      dof rx ry rz
   end
:hierarchy
   begin
      root Spine_dum LeftUpLeg_dum RightUpLeg_dum
      Spine_dum Spine
      LeftUpLeg_dum LeftUpLeg
      RightUpLeg_dum RightUpLeg
      Spine Spine_dum1 Spine_dum2 Spine_dum3
      Spine_dum1 Head
      Spine_dum2 LeftShoulder
      Spine_dum3 RightShoulder
      LeftShoulder LeftArm
      LeftArm LeftForeArm
      LeftForeArm LeftHand
      LeftHand LeftHand_dum1 LeftHand_dum2
      LeftHand_dum1 LeftHandThumb1
      RightShoulder RightArm
      RightArm RightForeArm
      RightForeArm RightHand
      RightHand RightHand_dum1 RightHand_dum2
      RightHand_dum1 RightHandThumb1
      LeftUpLeg LeftLeg
      LeftLeg LeftFoot
      LeftFoot LeftToeBase
      RightUpLeg RightLeg
      RightLeg RightFoot
      RightFoot RightToeBase
   end

# File created by Blade
# Date/Time:  Wed Apr 08 17:35:25 2015
# Frame Rate: 120.000 fps
#------------------------------------------------------
:FULLY-SPECIFIED
:DEGREES
518
root 7.941663 36.841633 3.033483 50.522544 -60.182266 -23.908706
Spine -33.723787 -6.317641 14.507127
Head 35.101329 13.364412 9.059281
LeftShoulder -11.154461 25.490657 10.505700
LeftArm 19.633111 23.110831 -77.408885
LeftForeArm 18.989241 0.000000 29.102783
LeftHand -12.754188 -0.000000 -9.856819
LeftHandThumb1 -26.253704 0.000000 33.147579
RightShoulder -42.518964 -54.100993 18.961953
RightArm 51.942787 -20.840171 50.629140
RightForeArm 5.808392 -0.000000 25.892321
RightHand -1.065823 -0.000000 14.685133
RightHandThumb1 -24.326973 -0.000000 -32.862282
LeftUpLeg -39.788404 5.788786 3.764181
LeftLeg 24.355975 -0.000000 -0.000000
LeftFoot -12.387410 -1.681396 -3.966008
LeftToeBase 8.677835 -0.000000 -0.000000
RightUpLeg -120.880329 7.227102 29.000164
RightLeg 95.146013 -0.000000 -0.000000
RightFoot -12.850953 -26.178408 5.712161
RightToeBase -21.435664 -0.000000 0.000000
519
root 7.946729 36.841569 3.037241 50.459656 -60.158804 -23.875775
Spine -33.683305 -6.282075 14.464583
Head 35.203606 13.284141 9.076843
LeftShoulder -11.147794 25.498022 10.504368
LeftArm 19.637190 23.280729 -77.367786
LeftForeArm 19.088540 -0.000000 29.076485
LeftHand -12.904624 -0.000000 -10.021738
LeftHandThumb1 -26.253704 0.000000 33.147579
RightShoulder -42.571816 -54.113537 19.036164
RightArm 52.014276 -20.860067 50.504076
RightForeArm 5.465864 -0.000000 25.884083
RightHand -1.000986 -0.000000 14.592591
RightHandThumb1 -24.326973 -0.000000 -32.862282
LeftUpLeg -39.760732 5.770776 3.758085
LeftLeg 24.344563 -0.000000 -0.000000
LeftFoot -12.381437 -1.690777 -3.949896
LeftToeBase 8.707428 -0.000000 -0.000000
RightUpLeg -120.880325 6.980908 28.554509
RightLeg 94.884669 -0.000000 -0.000000
RightFoot -13.421254 -26.877558 5.321635
RightToeBase -22.613542 -0.000000 0.000000
520
root 7.949090 36.841163 3.038867 50.374255 -60.114984 -23.853199
Spine -33.608188 -6.255485 14.427403
Head 35.275796 13.202857 9.122937
LeftShoulder -11.144045 25.509185 10.490148
LeftArm 19.655744 23.385620 -77.323093
LeftForeArm 19.155690 -0.000000 29.050822
LeftHand -12.912762 -0.000000 -10.070328
LeftHandThumb1 -26.253704 0.000000 33.147579
RightShoulder -42.592714 -54.086603 19.078550
RightArm 52.055679 -20.926571 50.374353
RightForeArm 5.025530 -0.000000 25.881249
RightHand -0.938147 -0.000000 14.418457
RightHandThumb1 -24.326973 -0.000000 -32.862282
LeftUpLeg -39.705148 5.758787 3.769845
LeftLeg 24.340476 -0.000000 -0.000000
LeftFoot -12.376474 -1.714864 -3.940598
LeftToeBase 8.712258 -0.000000 -0.000000
RightUpLeg -120.857776 6.707276 28.096129
RightLeg 94.675200 -0.000000 -0.000000
RightFoot -14.064847 -27.513429 5.230845
RightToeBase -23.321730 -0.000000 0.000000
521
root 7.950037 36.840819 3.040101 50.319083 -60.061499 -23.849238
Spine -33.554619 -6.223751 14.406427
Head 35.350216 13.117753 9.170163
LeftShoulder -11.134358 25.512925 10.509463
LeftArm 19.636922 23.496429 -77.326451
LeftForeArm 19.142347 -0.000000 29.029683
LeftHand -12.416337 -0.000000 -9.551000
LeftHandThumb1 -26.253704 0.000000 33.147579
RightShoulder -42.585084 -54.069782 19.086651
RightArm 52.079386 -21.020692 50.257956
RightForeArm 4.449403 -0.000000 25.882417
RightHand -0.875583 0.000000 14.110001
RightHandThumb1 -24.326973 -0.000000 -32.862282
LeftUpLeg -39.673252 5.762267 3.789280
LeftLeg 24.358251 -0.000000 -0.000000
LeftFoot -12.381154 -1.757030 -3.910891
LeftToeBase 8.719741 -0.000000 -0.000000
RightUpLeg -120.844729 6.409930 27.580408
RightLeg 94.541821 -0.000000 -0.000000
RightFoot -14.596766 -27.997726 5.187432
RightToeBase -23.951272 -0.000000 0.000000
522
root 7.950998 36.840851 3.042647 50.244927 -60.010157 -23.833761
Spine -33.490681 -6.203590 14.389399
Head 35.410824 13.042893 9.209542
LeftShoulder -11.156333 25.522280 10.480930
LeftArm 19.656256 23.561994 -77.315754
LeftForeArm 19.338879 -0.000000 28.927956
LeftHand -12.833103 -0.000000 -9.995610
LeftHandThumb1 -26.253704 0.000000 33.147579
RightShoulder -42.581987 -54.054093 19.095986
RightArm 52.114856 -21.055502 50.177316
RightForeArm 4.097323 0.000000 25.861646
RightHand -0.882575 -0.000000 14.105073
RightHandThumb1 -24.326973 -0.000000 -32.862282
LeftUpLeg -39.626438 5.713721 3.830472
LeftLeg 24.370942 -0.000000 -0.000000
LeftFoot -12.366779 -1.768979 -3.904149
LeftToeBase 8.667085 -0.000000 -0.000000
RightUpLeg -120.819738 6.080056 26.993280
RightLeg 94.436903 -0.000000 -0.000000
RightFoot -15.084014 -28.363039 5.316662
RightToeBase -24.405895 -0.000000 0.000000
523
root 7.947522 36.838247 3.045724 50.092120 -59.959498 -23.811274
Spine -33.350461 -6.212376 14.353936
Head 35.466235 12.971990 9.274127
LeftShoulder -11.075630 25.499864 10.496748
LeftArm 19.520762 23.472521 -77.406567
LeftForeArm 19.626935 -0.000000 28.919937
LeftHand -12.771002 -0.000000 -10.324466
LeftHandThumb1 -26.253704 0.000000 33.147579
RightShoulder -42.562902 -54.050000 19.115677
RightArm 52.166870 -21.100666 50.071891
RightForeArm 3.636923 -0.000000 25.874589
RightHand -1.001781 -0.000000 13.957104
RightHandThumb1 -24.326973 -0.000000 -32.862282
LeftUpLeg -39.502667 5.649372 3.879199
LeftLeg 24.391774 -0.000000 -0.000000
LeftFoot -12.377934 -1.750700 -3.869522
LeftToeBase 8.606307 -0.000000 -0.000000
RightUpLeg -120.740224 5.705832 26.336089
RightLeg 94.428982 -0.000000 -0.000000
RightFoot -15.472002 -28.640645 5.187961
RightToeBase -25.046754 -0.000000 0.000000
